<?xml version="1.0" encoding="utf-8"?>
<!-- Generator: Adobe Illustrator 19.2.1, SVG Export Plug-In . SVG Version: 6.00 Build 0)  -->
<svg version="1.2" baseProfile="tiny" id="Layer_1" xmlns="http://www.w3.org/2000/svg" xmlns:xlink="http://www.w3.org/1999/xlink"
	 x="0px" y="0px" viewBox="0 0 841.9 489.6" xml:space="preserve">
<metadata><?xpacket begin="﻿" id="W5M0MpCehiHzreSzNTczkc9d"?>
<x:xmpmeta xmlns:x="adobe:ns:meta/" x:xmptk="Adobe XMP Core 5.6-c111 79.158366, 2015/09/25-01:12:00        ">
   <rdf:RDF xmlns:rdf="http://www.w3.org/1999/02/22-rdf-syntax-ns#">
      <rdf:Description rdf:about=""/>
   </rdf:RDF>
</x:xmpmeta>
                                                                                                    
                                                                                                    
                                                                                                    
                                                                                                    
                                                                                                    
                                                                                                    
                                                                                                    
                                                                                                    
                                                                                                    
                                                                                                    
                                                                                                    
                                                                                                    
                                                                                                    
                                                                                                    
                                                                                                    
                                                                                                    
                                                                                                    
                                                                                                    
                                                                                                    
                                                                                                    
                           
<?xpacket end="w"?></metadata>
<rect y="0" fill="#E3F2FD" width="841.9" height="489.6"/>
<g>
	<path fill="#FFFFFF" d="M513,110.8l-8.1-0.7l0.7-8.1l8.1,0.7L513,110.8z M506.3,108.9l5.6,0.5l0.5-5.6l-5.6-0.5L506.3,108.9z"/>
</g>
<g>
	<path fill="#FFFFFF" d="M442.5,177.2l-3.1,7.5l-7.5-3.1l3.1-7.5L442.5,177.2z M438.7,183.1l2.1-5.2l-5.2-2.1l-2.1,5.2L438.7,183.1z
		"/>
</g>
<g>
	<g>
		<path fill="#FFFFFF" d="M232.3,91.1l-3.7-3.7l3.7-3.7l3.7,3.7L232.3,91.1z M230.1,87.4l2.2,2.2l2.2-2.2l-2.2-2.2L230.1,87.4z"/>
	</g>
	<g>
		
			<rect x="227.2" y="89.8" transform="matrix(0.7071 -0.7071 0.7071 0.7071 3.2812 188.5622)" fill="#FFFFFF" width="4.2" height="1"/>
	</g>
	<g>
		<path fill="#FFFFFF" d="M226.3,97l-3.7-3.7l3.7-3.7l3.7,3.7L226.3,97z M224.1,93.3l2.2,2.2l2.2-2.2l-2.2-2.2L224.1,93.3z"/>
	</g>
</g>
<g>
	<g>
		<path fill="#FFFFFF" d="M231.1,224.9l-5.2-2.5l2.5-5.2l5.2,2.5L231.1,224.9z M227.5,221.8l3,1.4l1.4-3l-3-1.4L227.5,221.8z"/>
	</g>
	<g>
		<path fill="#FFFFFF" d="M232.1,227.9l-9.3-4.4l3.5-7.3l2,1l1-2l7.3,3.5L232.1,227.9z M224.5,222.9l7,3.4l3.4-7l-5-2.4l-1,2l-2-1
			L224.5,222.9z"/>
	</g>
</g>
<g>
	<g>
		<path fill="#FFFFFF" d="M279.1,33l-5.2-2.5l2.5-5.2l5.2,2.5L279.1,33z M275.5,29.9l3,1.4l1.4-3l-3-1.4L275.5,29.9z"/>
	</g>
	<g>
		<path fill="#FFFFFF" d="M280.1,36l-9.3-4.4l3.5-7.3l2,1l1-2l7.3,3.5L280.1,36z M272.5,31l7,3.4l3.4-7l-5-2.4l-1,2l-2-1L272.5,31z"
			/>
	</g>
</g>
<g>
	<polygon fill="#FFFFFF" points="390.5,64.1 389.6,63.2 392.9,59.9 388.6,59.9 392.9,55.6 388.3,55.6 393.9,50 394.8,50.9 
		391.4,54.4 395.9,54.4 391.6,58.7 395.9,58.7 	"/>
</g>
<g>
	<path fill="#FFFFFF" d="M52.6,188.7h-6.7V182h6.7V188.7z M47.2,187.5h4.2v-4.2h-4.2V187.5z"/>
</g>
<g>
	<g>
		<path fill="#FFFFFF" d="M516.9,50.9l-3.4-7.2l7.2-3.4l3.4,7.2L516.9,50.9z M514.8,44.1l2.6,5.5l5.5-2.6l-2.6-5.5L514.8,44.1z"/>
	</g>
	<g>
		<path fill="#FFFFFF" d="M520.2,41.6l-1.9-4l4-1.9l1.9,4L520.2,41.6z M519.6,38l1.1,2.3l2.3-1.1l-1.1-2.3L519.6,38z"/>
	</g>
</g>
<g>
	<g>
		<path fill="#FFFFFF" d="M339.9,142.6l-3.6-7.6l7.6-3.6l3.6,7.6L339.9,142.6z M337.6,135.4l2.7,5.8l5.8-2.7l-2.7-5.8L337.6,135.4z"
			/>
	</g>
	<g>
		<path fill="#FFFFFF" d="M343.4,132.7l-2-4.3l4.3-2l2,4.3L343.4,132.7z M342.7,128.9l1.2,2.4l2.4-1.2l-1.2-2.4L342.7,128.9z"/>
	</g>
</g>
<g>
	<g>
		<path fill="#FFFFFF" d="M726.9,323.6l-3.6-7.6l7.6-3.6l3.6,7.6L726.9,323.6z M724.6,316.5l2.7,5.8l5.8-2.7l-2.7-5.8L724.6,316.5z"
			/>
	</g>
	<g>
		<path fill="#FFFFFF" d="M730.4,313.7l-2-4.3l4.3-2l2,4.3L730.4,313.7z M729.8,309.9l1.2,2.4l2.4-1.2l-1.2-2.4L729.8,309.9z"/>
	</g>
</g>
<g>
	<g>
		<path fill="#FFFFFF" d="M569.1,162.3l-7.9-3.1l3.1-7.9l7.9,3.1L569.1,162.3z M562.5,158.7l6,2.3l2.3-6l-6-2.3L562.5,158.7z"/>
	</g>
	<g>
		<path fill="#FFFFFF" d="M564.8,152.7l-4.4-1.7l1.7-4.4l4.4,1.7L564.8,152.7z M561.7,150.4l2.5,1l1-2.5l-2.5-1L561.7,150.4z"/>
	</g>
</g>
<g>
	<g>
		<path fill="#FFFFFF" d="M615.6,456.8l-7,4.8l-4.8-7l7-4.8L615.6,456.8z M608.9,460.2l5.3-3.7l-3.7-5.3l-5.3,3.7L608.9,460.2z"/>
	</g>
	<g>
		<path fill="#FFFFFF" d="M605.2,454.9l-3.9,2.7l-2.7-3.9l3.9-2.7L605.2,454.9z M601.6,456.2l2.2-1.5l-1.5-2.2l-2.2,1.5L601.6,456.2
			z"/>
	</g>
</g>
<g>
	<g>
		<path fill="#FFFFFF" d="M94.9,398l-7.9-2.9l2.9-7.9l7.9,2.9L94.9,398z M88.2,394.5l6,2.2l2.2-6l-6-2.2L88.2,394.5z"/>
	</g>
	<g>
		<path fill="#FFFFFF" d="M90.4,388.5l-4.4-1.6l1.6-4.4l4.4,1.6L90.4,388.5z M87.3,386.2l2.5,0.9l0.9-2.5l-2.5-0.9L87.3,386.2z"/>
	</g>
</g>
<g>
	<g>
		<path fill="#FFFFFF" d="M369.8,278.6l-4.8-6.1l0.4-3.7l6.1-4.8l6.4,8.2L369.8,278.6z M366.3,272.1l3.7,4.7l6.2-4.9l-4.9-6.2
			l-4.7,3.7L366.3,272.1z"/>
	</g>
	<g>
		<path fill="#FFFFFF" d="M370.2,275.4l-2.7-3.4l0.3-2.1l3.4-2.7l3.6,4.6L370.2,275.4z M368.8,271.6l1.6,2l2.6-2.1l-2.1-2.6l-2,1.6
			L368.8,271.6z"/>
	</g>
</g>
<g>
	<g>
		
			<rect x="46.2" y="54.5" transform="matrix(0.7071 -0.7071 0.7071 0.7071 -28.0434 50.4319)" fill="#FFFFFF" width="1.3" height="9.2"/>
	</g>
	<g>
		
			<rect x="46.3" y="54.5" transform="matrix(0.7071 -0.7071 0.7071 0.7071 -28.023 50.5115)" fill="#FFFFFF" width="1.3" height="9.2"/>
	</g>
	<g>
		
			<rect x="42.4" y="58.5" transform="matrix(0.7071 -0.7071 0.7071 0.7071 -28.073 50.5322)" fill="#FFFFFF" width="9.2" height="1.3"/>
	</g>
</g>
<g>
	<g>
		
			<rect x="503" y="230.6" transform="matrix(0.7071 -0.7071 0.7071 0.7071 -18.7844 424.9932)" fill="#FFFFFF" width="1.3" height="9.2"/>
	</g>
	<g>
		
			<rect x="503.1" y="230.6" transform="matrix(0.7071 -0.7071 0.7071 0.7071 -18.764 425.0727)" fill="#FFFFFF" width="1.3" height="9.2"/>
	</g>
	<g>
		
			<rect x="499.1" y="234.6" transform="matrix(0.7071 -0.7071 0.7071 0.7071 -18.814 425.0934)" fill="#FFFFFF" width="9.2" height="1.3"/>
	</g>
</g>
<g>
	<g>
		
			<rect x="143.5" y="42.3" transform="matrix(0.7071 -0.7071 0.7071 0.7071 9.0617 115.6405)" fill="#FFFFFF" width="1.3" height="9.2"/>
	</g>
	<g>
		
			<rect x="143.6" y="42.3" transform="matrix(0.7071 -0.7071 0.7071 0.7071 9.0822 115.7201)" fill="#FFFFFF" width="1.3" height="9.2"/>
	</g>
	<g>
		
			<rect x="139.7" y="46.3" transform="matrix(0.7071 -0.7071 0.7071 0.7071 9.0979 115.7738)" fill="#FFFFFF" width="9.2" height="1.3"/>
	</g>
</g>
<g>
	<g>
		<rect x="178.9" y="305" fill="#FFFFFF" width="1.3" height="10.4"/>
	</g>
	<g>
		
			<rect x="177.5" y="312.1" transform="matrix(0.7072 -0.707 0.707 0.7072 -169.882 217.9185)" fill="#FFFFFF" width="1.3" height="3.9"/>
	</g>
	<g>
		
			<rect x="179" y="313.4" transform="matrix(0.7071 -0.7071 0.7071 0.7071 -169.0569 219.9366)" fill="#FFFFFF" width="3.9" height="1.3"/>
	</g>
	<g>
		<path fill="#FFFFFF" d="M181.8,305.9h-4.5v-4.5h4.5V305.9z M178.6,304.7h2v-2h-2V304.7z"/>
	</g>
</g>
<g>
	<path fill="#FFFFFF" d="M805.8,25.9L805,34l-8.1-0.7l0.7-8.1L805.8,25.9z M803.9,32.7l0.5-5.6l-5.6-0.5l-0.5,5.6L803.9,32.7z"/>
</g>
<g>
	<path fill="#FFFFFF" d="M638,261.5l-5.8,5.8l-5.8-5.8l5.8-5.8L638,261.5z M632.3,265.4l4-4l-4-4l-4,4L632.3,265.4z"/>
</g>
<g>
	<g>
		<path fill="#FFFFFF" d="M683.5,384.5l-4.4,4.4l-4.4-4.4l4.4-4.4L683.5,384.5z M679,387.2l2.7-2.7l-2.7-2.7l-2.7,2.7L679,387.2z"/>
	</g>
	<g>
		
			<rect x="682" y="385.5" transform="matrix(0.7071 -0.7071 0.7071 0.7071 -74.4681 596.3906)" fill="#FFFFFF" width="1.3" height="5.1"/>
	</g>
	<g>
		<path fill="#FFFFFF" d="M690.6,391.6l-4.4,4.4l-4.4-4.4l4.4-4.4L690.6,391.6z M686.1,394.3l2.7-2.7l-2.7-2.7l-2.7,2.7L686.1,394.3
			z"/>
	</g>
</g>
<g>
	<g>
		<path fill="#FFFFFF" d="M557.8,319.5l-4.4,4.4l-4.4-4.4l4.4-4.4L557.8,319.5z M553.4,322.2l2.7-2.7l-2.7-2.7l-2.7,2.7L553.4,322.2
			z"/>
	</g>
	<g>
		
			<rect x="556.4" y="320.5" transform="matrix(0.7071 -0.7071 0.7071 0.7071 -65.2971 488.5288)" fill="#FFFFFF" width="1.3" height="5.1"/>
	</g>
	<g>
		<path fill="#FFFFFF" d="M565,326.7l-4.4,4.4l-4.4-4.4l4.4-4.4L565,326.7z M560.5,329.3l2.7-2.7l-2.7-2.7l-2.7,2.7L560.5,329.3z"/>
	</g>
</g>
<g>
	<g>
		<path fill="#FFFFFF" d="M457.3,390.5l-2.5,5.2l-5.2-2.5l2.5-5.2L457.3,390.5z M454.3,394.1l1.4-3l-3-1.4l-1.4,3L454.3,394.1z"/>
	</g>
	<g>
		<path fill="#FFFFFF" d="M460.4,389.5l-4.4,9.3l-7.3-3.5l1-2l-2-1l3.5-7.3L460.4,389.5z M455.3,397.1l3.4-7l-7-3.4l-2.4,5l2,1l-1,2
			L455.3,397.1z"/>
	</g>
</g>
<g>
	<path fill="#FFFFFF" d="M140.7,150.9l6.7,0.4L147,158l-6.7-0.4L140.7,150.9z M146.1,152.5l-4.2-0.2l-0.2,4.2l4.2,0.2L146.1,152.5z"
		/>
</g>
<g>
	<path fill="#FFFFFF" d="M191.3,447.6l6.7,0.4l-0.4,6.7l-6.7-0.4L191.3,447.6z M196.7,449.2l-4.2-0.2l-0.2,4.2l4.2,0.2L196.7,449.2z
		"/>
</g>
<g>
	<g>
		<path fill="#FFFFFF" d="M88.3,293.3l-7.5,3.6l-3.6-7.5l7.5-3.6L88.3,293.3z M81.3,295.5l5.7-2.7l-2.7-5.7l-5.7,2.7L81.3,295.5z"/>
	</g>
	<g>
		<path fill="#FFFFFF" d="M78.6,289.8l-4.2,2l-2-4.2l4.2-2L78.6,289.8z M74.8,290.5l2.4-1.1l-1.1-2.4l-2.4,1.1L74.8,290.5z"/>
	</g>
</g>
<g>
	<g>
		<path fill="#FFFFFF" d="M694.1,179.9l-6,4.7l-3.7-0.4l-4.7-6l8-6.3L694.1,179.9z M687.8,183.3l4.6-3.6l-4.8-6.1l-6.1,4.8l3.6,4.6
			L687.8,183.3z"/>
	</g>
	<g>
		<path fill="#FFFFFF" d="M690.9,179.5l-3.3,2.6l-2.1-0.2l-2.6-3.3l4.5-3.5L690.9,179.5z M687.3,180.9l2-1.5l-2-2.6l-2.6,2l1.5,2
			L687.3,180.9z"/>
	</g>
</g>
<g>
	<g>
		
			<rect x="293.9" y="389.5" transform="matrix(0.7071 -0.7071 0.7071 0.7071 -188.462 325.3611)" fill="#FFFFFF" width="9.2" height="1.3"/>
	</g>
	<g>
		
			<rect x="293.9" y="389.4" transform="matrix(0.7071 -0.7071 0.7071 0.7071 -188.3825 325.3406)" fill="#FFFFFF" width="9.2" height="1.3"/>
	</g>
	<g>
		
			<rect x="297.9" y="385.4" transform="matrix(0.7071 -0.7071 0.7071 0.7071 -188.3325 325.3199)" fill="#FFFFFF" width="1.3" height="9.2"/>
	</g>
</g>
<g>
	<g>
		
			<rect x="652.6" y="72.4" transform="matrix(0.7071 -0.7071 0.7071 0.7071 140.8358 486.0914)" fill="#FFFFFF" width="9.2" height="1.3"/>
	</g>
	<g>
		
			<rect x="652.6" y="72.3" transform="matrix(0.7071 -0.7071 0.7071 0.7071 140.9153 486.0709)" fill="#FFFFFF" width="9.2" height="1.3"/>
	</g>
	<g>
		
			<rect x="656.5" y="68.3" transform="matrix(0.7071 -0.7071 0.7071 0.7071 140.8946 486.0209)" fill="#FFFFFF" width="1.3" height="9.2"/>
	</g>
</g>
<g>
	<g>
		
			<rect x="743.6" y="98.5" transform="matrix(0.7071 -0.7071 0.7071 0.7071 149.5845 559.3473)" fill="#FFFFFF" width="12.7" height="1.3"/>
	</g>
	<g>
		
			<rect x="749.3" y="92.6" transform="matrix(0.7071 -0.7071 0.7071 0.7071 149.7123 559.275)" fill="#FFFFFF" width="1.3" height="12.7"/>
	</g>
</g>
<g>
	<g>
		
			<rect x="792.8" y="341" transform="matrix(0.7071 -0.7071 0.7071 0.7071 -8.0639 663.8979)" fill="#FFFFFF" width="9.2" height="1.3"/>
	</g>
	<g>
		
			<rect x="792.8" y="340.9" transform="matrix(0.7071 -0.7071 0.7071 0.7071 -7.9844 663.8774)" fill="#FFFFFF" width="9.2" height="1.3"/>
	</g>
	<g>
		
			<rect x="796.7" y="337" transform="matrix(0.7071 -0.7071 0.7071 0.7071 -8.0296 663.8494)" fill="#FFFFFF" width="1.3" height="9.2"/>
	</g>
</g>
<g>
	<g>
		<rect x="786.1" y="239.9" fill="#FFFFFF" width="10.4" height="1.3"/>
	</g>
	<g>
		
			<rect x="793.2" y="241.3" transform="matrix(0.7072 -0.707 0.707 0.7072 61.7409 633.031)" fill="#FFFFFF" width="3.9" height="1.3"/>
	</g>
	<g>
		
			<rect x="794.5" y="237.2" transform="matrix(0.7071 -0.7071 0.7071 0.7071 63.7777 632.2911)" fill="#FFFFFF" width="1.3" height="3.9"/>
	</g>
	<g>
		<path fill="#FFFFFF" d="M787,238.3v4.5h-4.5v-4.5H787z M785.8,241.5v-2h-2v2H785.8z"/>
	</g>
</g>
<g>
	<g>
		<rect x="787.7" y="460.9" fill="#FFFFFF" width="10.4" height="1.3"/>
	</g>
	<g>
		
			<rect x="794.8" y="462.3" transform="matrix(0.7072 -0.707 0.707 0.7072 -94.0612 698.8381)" fill="#FFFFFF" width="3.9" height="1.3"/>
	</g>
	<g>
		
			<rect x="796" y="458.2" transform="matrix(0.7071 -0.7071 0.7071 0.7071 -92.0464 698.1204)" fill="#FFFFFF" width="1.3" height="3.9"/>
	</g>
	<g>
		<path fill="#FFFFFF" d="M788.6,459.3v4.5h-4.5v-4.5H788.6z M787.4,462.5v-2h-2v2H787.4z"/>
	</g>
</g>
</svg>
